Coordinates
version=1
nRows=21
nColumns=28
inDegrees=yes

Units are S.I. units (second, meters, Newtons, ...)
Angles are in degrees.

endheader
time	pelvis_tilt	pelvis_list	pelvis_rotation	pelvis_tx	pelvis_ty	pelvis_tz	hip_flexion_r	hip_adduction_r	hip_rotation_r	knee_angle_r	ankle_angle_r	subtalar_angle_r	mtp_angle_r	hip_flexion_l	hip_adduction_l	hip_rotation_l	knee_angle_l	socket_flexion	socket_adduction	socket_rotation	socket_tx	socket_ty	socket_tz	foot_flex	lumbar_extension	lumbar_bending	lumbar_rotation
      0.93333333	     15.09639362	     -1.86324829	    -13.58230445	      0.41895656	      1.04764537	      0.33340657	     -8.00117160	     -1.12624607	     -7.06641127	    -21.50007893	      0.34354911	      7.74112741	     45.57665099	     -7.74828869	      0.86402614	     -8.22075808	    -51.34255446	      0.00000000	      0.00000000	      0.00000000	      0.00000000	      0.00000000	      0.00000000	      1.40441337	    -24.46499197	     -0.91981673	     17.92411268
      0.93750000	     15.09783714	     -1.76033341	    -13.78087919	      0.42336927	      1.04845044	      0.33398680	     -8.39311655	     -1.32400575	     -7.03515988	    -21.18828463	      0.36937961	      7.85227820	     45.64491211	     -7.23439231	      0.91935329	     -8.09646175	    -50.89018786	      0.00000000	      0.00000000	      0.00000000	      0.00000000	      0.00000000	      0.00000000	      1.43774482	    -24.45433802	     -1.12181790	     17.94187056
      0.94166667	     15.10323203	     -1.64796066	    -13.99258290	      0.42773488	      1.04925644	      0.33453665	     -8.77377039	     -1.54369109	     -6.97927067	    -20.88874390	      0.30422020	      8.00828850	     45.71204754	     -6.74514069	      0.99997000	     -7.94202961	    -50.36329746	      0.00000000	      0.00000000	      0.00000000	      0.00000000	      0.00000000	      0.00000000	      1.41828195	    -24.45187820	     -1.33950900	     18.00907696
      0.94583333	     15.11929009	     -1.66549908	    -14.19838295	      0.43161628	      1.04995378	      0.33504280	     -9.04619063	     -1.64394645	     -7.01303604	    -20.84270062	      0.28787738	      8.04504756	     45.72607651	     -6.21728354	      0.90758292	     -7.85795501	    -49.95651319	      0.00000000	      0.00000000	      0.00000000	      0.00000000	      0.00000000	      0.00000000	      1.44900570	    -24.59562261	     -1.42232562	     18.03083577
      0.95000000	     15.18414392	     -1.45162700	    -14.44822686	      0.43634890	      1.05077117	      0.33566494	     -9.52702739	     -2.03859116	     -7.09474186	    -20.40513112	     -0.20766440	      8.94186739	     46.17943184	     -5.88042681	      1.14089482	     -7.68372450	    -49.21071512	      0.00000000	      0.00000000	      0.00000000	      0.00000000	      0.00000000	      0.00000000	      1.37844945	    -24.53375077	     -1.82956198	     18.48954268
      0.95416667	     15.17212961	     -1.39252106	    -14.62144576	      0.44056398	      1.05143566	      0.33615150	     -9.87237901	     -2.18956025	     -7.04428544	    -20.15426279	     -0.17080928	      9.06792965	     46.26792726	     -5.39301329	      1.15746474	     -7.44847055	    -48.62072075	      0.00000000	      0.00000000	      0.00000000	      0.00000000	      0.00000000	      0.00000000	      1.36333221	    -24.54379046	     -1.98293671	     18.50932631
      0.95833333	     15.16623438	     -1.40682295	    -14.80912126	      0.44450029	      1.05203290	      0.33659349	    -10.14047964	     -2.29023634	     -7.05355700	    -20.06458031	     -0.18487143	      9.12241588	     46.29432129	     -4.89365345	      1.07565068	     -7.28787933	    -48.08416487	      0.00000000	      0.00000000	      0.00000000	      0.00000000	      0.00000000	      0.00000000	      1.38887778	    -24.64285114	     -2.06939156	     18.52947251
      0.96250000	     15.11712268	     -1.29218253	    -14.96128710	      0.44904022	      1.05265614	      0.33708480	    -10.52759100	     -2.47737662	     -6.97093814	    -19.65771166	     -0.28170946	      9.31462774	     46.36239245	     -4.44469774	      1.16153654	     -6.97068968	    -47.31546613	      0.00000000	      0.00000000	      0.00000000	      0.00000000	      0.00000000	      0.00000000	      1.33886909	    -24.53037718	     -2.26204125	     18.61452804
      0.96666667	     15.08256531	     -1.24672640	    -15.11383417	      0.45322335	      1.05321029	      0.33756216	    -10.84880957	     -2.60941356	     -6.95893782	    -19.39292864	     -0.41633350	      9.50731881	     46.43155909	     -3.97460999	      1.15187467	     -6.68993586	    -46.62146602	      0.00000000	      0.00000000	      0.00000000	      0.00000000	      0.00000000	      0.00000000	      1.30456588	    -24.52400896	     -2.40154730	     18.70430664
      0.97083333	     15.04548090	     -1.24102085	    -15.26576083	      0.45735964	      1.05370504	      0.33799726	    -11.14387826	     -2.70738925	     -6.95605316	    -19.19729719	     -0.52264561	      9.67048072	     46.49031146	     -3.52330631	      1.10258372	     -6.40177230	    -45.91567916	      0.00000000	      0.00000000	      0.00000000	      0.00000000	      0.00000000	      0.00000000	      1.29639476	    -24.52691612	     -2.49878976	     18.77765454
      0.97500000	     14.98884474	     -1.21748193	    -15.39713298	      0.46153742	      1.05415806	      0.33843575	    -11.45920156	     -2.81210242	     -6.96084317	    -18.90544650	     -0.65610975	      9.87984642	     46.56344032	     -3.05113841	      1.06260199	     -6.08232249	    -45.18510835	      0.00000000	      0.00000000	      0.00000000	      0.00000000	      0.00000000	      0.00000000	      1.25949331	    -24.50363264	     -2.61514758	     18.86814838
      0.97916667	     14.92312907	     -1.20245571	    -15.49250329	      0.46574071	      1.05455756	      0.33883697	    -11.76941880	     -2.89286071	     -6.98163001	    -18.62380479	     -0.81189513	     10.11700381	     46.65172503	     -2.58473851	      1.00214332	     -5.74250136	    -44.43430290	      0.00000000	      0.00000000	      0.00000000	      0.00000000	      0.00000000	      0.00000000	      1.22215083	    -24.47669773	     -2.71026743	     18.96086540
      0.98333333	     14.86591013	     -1.22576150	    -15.61754902	      0.46981687	      1.05491067	      0.33921810	    -12.03850043	     -2.95346205	     -6.99134581	    -18.44179967	     -0.91343620	     10.28878534	     46.71866185	     -2.14893942	      0.91120153	     -5.38886275	    -43.65065613	      0.00000000	      0.00000000	      0.00000000	      0.00000000	      0.00000000	      0.00000000	      1.21234815	    -24.47274015	     -2.74748110	     19.02341583
      0.98750000	     14.85132424	     -1.13958604	    -15.54234780	      0.47430499	      1.05521347	      0.33940292	    -12.39824310	     -3.18505757	     -7.64978539	    -18.16238590	     -1.39792806	     11.59676133	     48.15555179	     -1.74389849	      0.95207028	     -4.81288113	    -42.83447450	      0.00000000	      0.00000000	      0.00000000	      0.00000000	      0.00000000	      0.00000000	      1.17259366	    -24.44758520	     -2.88283479	     18.97050436
      0.99166667	     14.75869185	     -1.17319642	    -15.64221326	      0.47838868	      1.05547018	      0.33982250	    -12.67186041	     -3.19442610	     -7.58783201	    -17.91442028	     -1.44774064	     11.63876534	     48.19275173	     -1.29476286	      0.83159625	     -4.42549090	    -42.00946429	      0.00000000	      0.00000000	      0.00000000	      0.00000000	      0.00000000	      0.00000000	      1.12240921	    -24.41264543	     -2.91656140	     19.02989050
      0.99583333	     14.69046791	     -1.24800132	    -15.78456604	      0.48233003	      1.05569312	      0.34025790	    -12.88847676	     -3.19844571	     -7.55552730	    -17.84128434	     -1.47189686	     11.67208598	     48.20483763	     -0.89434235	      0.67588846	     -4.06946781	    -41.16236614	      0.00000000	      0.00000000	      0.00000000	      0.00000000	      0.00000000	      0.00000000	      1.13153916	    -24.42695679	     -2.91100020	     19.05999855
      1.00000000	     14.54330839	     -1.28501740	    -15.79106751	      0.48658264	      1.05584553	      0.34064434	    -13.21234631	     -3.14720871	     -7.51327583	    -17.40242384	     -1.61534633	     11.76811407	     48.21957478	     -0.40748110	      0.52628134	     -3.56954144	    -40.30804051	      0.00000000	      0.00000000	      0.00000000	      0.00000000	      0.00000000	      0.00000000	      1.05413867	    -24.32452770	     -2.92057497	     19.14923054
      1.00416667	     14.46799713	     -1.37981966	    -15.92273633	      0.49051062	      1.05596796	      0.34107231	    -13.41569982	     -3.12736939	     -7.49057601	    -17.35123022	     -1.64776684	     11.80111238	     48.22740029	     -0.02814335	      0.33781039	     -3.19254043	    -39.43061049	      0.00000000	      0.00000000	      0.00000000	      0.00000000	      0.00000000	      0.00000000	      1.06712301	    -24.33885955	     -2.90095164	     19.17180912
      1.00833333	     14.36398382	     -1.46115259	    -16.02329559	      0.49451687	      1.05604910	      0.34154458	    -13.65051284	     -3.08916005	     -7.45475442	    -17.17752501	     -1.67863859	     11.85277605	     48.23314019	      0.37326451	      0.15089911	     -2.76193875	    -38.52910116	      0.00000000	      0.00000000	      0.00000000	      0.00000000	      0.00000000	      0.00000000	      1.03416310	    -24.31040989	     -2.88753820	     19.21198714
      1.01250000	     14.17546027	     -1.54411610	    -15.92889766	      0.49883123	      1.05606901	      0.34184478	    -14.01112722	     -2.93104016	     -7.41787720	    -16.62704429	     -1.88404866	     11.94329012	     48.21896617	      0.87816987	     -0.06573064	     -2.13934040	    -37.65831403	      0.00000000	      0.00000000	      0.00000000	      0.00000000	      0.00000000	      0.00000000	      0.94729022	    -24.15920488	     -2.81170380	     19.29626660
      1.01666667	     14.08982974	     -1.65742970	    -16.05836886	      0.50271430	      1.05603390	      0.34236795	    -14.19749049	     -2.88383483	     -7.40232172	    -16.60366284	     -1.90831347	     11.96151236	     48.22118675	      1.23377250	     -0.29704588	     -1.74937398	    -36.73957773	      0.00000000	      0.00000000	      0.00000000	      0.00000000	      0.00000000	      0.00000000	      0.96477466	    -24.17763814	     -2.78428672	     19.30594127
